<svg xmlns="http://www.w3.org/2000/svg" width="30" height="26.157" viewBox="0 0 30 26.157"><defs><style>.a{fill:#fff;}</style></defs><g transform="translate(0 -2.355)"><g transform="translate(0 17.657)"><path class="a" d="M26.2,316.465l-1.752-1.783a.517.517,0,0,0-.672-.057l-7.634,5.623-2.7-1.271,2.372-.264a.517.517,0,0,0,.455-.517v-2.233a.517.517,0,0,0-.517-.517H13.164L8.812,315a.517.517,0,0,0-.258.041l-2.967,1.271H0v1.034H5.7a.517.517,0,0,0,.207-.041l2.941-1.287,4.243.434h2.166v1.282l-1.912.238-2.775-.295a.518.518,0,0,0-.274.982l5.732,2.636a.517.517,0,0,0,.517-.052l7.515-5.52,1.034,1.075-8.637,7.546H14.11l-8.244-3.065a.516.516,0,0,0-.181-.036H0v1.034H5.6l8.239,3.07a.517.517,0,0,0,.181.031h2.626a.517.517,0,0,0,.341-.129l9.19-8.032.025-.024A.517.517,0,0,0,26.2,316.465Z" transform="translate(0 -314.527)"/></g><g transform="translate(14.406 8.351)"><path class="a" d="M255.348,107.518l-2.729-2.837a.517.517,0,0,0-.331-.16L246.706,104h-2.129l.1-1.551,2.021-.408,2.822.631a.518.518,0,0,0,.176,0l2.744-.326-.124-1.034-2.657.284-2.843-.631a.423.423,0,0,0-.212,0l-2.517.517a.517.517,0,0,0-.419.476l-.165,2.517c0,.011,0,.021,0,.032a.517.517,0,0,0,.518.516h2.636l5.344.486,2.75,2.879a.517.517,0,0,0,.372.16h3.659v-1.034Z" transform="translate(-243.506 -100.957)"/></g><g transform="translate(10.256 2.355)"><path class="a" d="M194.372,4.526a.46.46,0,0,0-.2-.093l-8.786-2.067a.517.517,0,0,0-.424.1L179.28,6.6l.61.837,5.494-4,8.445,1.985,4.564,3.551.631-.832Z" transform="translate(-179.28 -2.355)"/></g><g transform="translate(13.98 5.478)"><path class="a" d="M231.925,50.747a.517.517,0,0,0-.424,0L228.4,52.3l.465.92,2.894-1.442,2.367.967.382-.961Z" transform="translate(-228.4 -50.701)"/></g><g transform="translate(9.833 8.733)"><path class="a" d="M162.6,108.691l-.91-.134c-.413-.062-.656-.222-.656-.481s.362-.517.848-.491h.372c.486,0,.848.258.848.491v.14h1.034v-.14a1.716,1.716,0,0,0-1.881-1.551h-.372A1.716,1.716,0,0,0,160,108.076a1.654,1.654,0,0,0,1.551,1.478l.894.134c.413.062.656.248.656.481s-.362.491-.848.491h-.372c-.486,0-.848-.258-.848-.491v-.14H160v.14a1.727,1.727,0,0,0,1.881,1.525h.372a1.74,1.74,0,0,0,1.9-1.5A1.654,1.654,0,0,0,162.6,108.691Z" transform="translate(-160 -106.525)"/></g><g transform="translate(6.78 6.218)"><path class="a" d="M121.268,72.236a4.135,4.135,0,1,1-.341-2.274l.935-.434a5.155,5.155,0,1,0,.439,2.848Z" transform="translate(-112.001 -66.525)"/></g><g transform="translate(11.367 8.295)"><rect class="a" width="1.034" height="1.034"/></g></g></svg>