<svg xmlns="http://www.w3.org/2000/svg" width="30" height="29.401" viewBox="0 0 30 29.401"><defs><style>.a,.c{fill:#fff;}.a{stroke-linecap:round;stroke-linejoin:round;}.b,.c{stroke:none;}</style></defs><g transform="translate(0 -5.115)"><g transform="translate(21.678 20.376)"><g class="a" transform="translate(-381.228 -270.613)"><path class="b" d="M 383.0565795898438 272.5008239746094 C 382.3240051269531 272.5008239746094 381.72802734375 271.9048156738281 381.72802734375 271.1722412109375 C 381.72802734375 271.1395874023438 381.7546081542969 271.1130065917969 381.7872619628906 271.1130065917969 C 381.8199157714844 271.1130065917969 381.8464965820312 271.1395874023438 381.8464965820312 271.1722412109375 C 381.8464965820312 271.8394775390625 382.3893432617188 272.38232421875 383.0565795898438 272.38232421875 C 383.7238159179688 272.38232421875 384.2666625976562 271.8394775390625 384.2666625976562 271.1722412109375 C 384.2666625976562 271.1395874023438 384.2932434082031 271.1130065917969 384.3258972167969 271.1130065917969 C 384.3585815429688 271.1130065917969 384.3851623535156 271.1396179199219 384.3851623535156 271.1723022460938 C 384.3851623535156 271.9048156738281 383.7891540527344 272.5008239746094 383.0565795898438 272.5008239746094 Z"/><path class="c" d="M 381.7872619628906 270.6130065917969 C 382.0960998535156 270.6130065917969 382.3464965820312 270.8633117675781 382.3464965820312 271.1722412109375 C 382.3464965820312 271.5637817382812 382.6651000976562 271.88232421875 383.0565795898438 271.88232421875 C 383.4481201171875 271.88232421875 383.7666625976562 271.5637817382812 383.7666625976562 271.1722412109375 C 383.7666625976562 270.8634033203125 384.0170593261719 270.6130065917969 384.3258972167969 270.6130065917969 C 384.634765625 270.6130065917969 384.8851318359375 270.8632202148438 384.8851623535156 271.1722412109375 C 384.8851623535156 272.1804504394531 384.0647888183594 273.0008239746094 383.0565795898438 273.0008239746094 C 382.0483703613281 273.0008239746094 381.22802734375 272.1805419921875 381.22802734375 271.1722412109375 C 381.22802734375 270.8634033203125 381.4784240722656 270.6130065917969 381.7872619628906 270.6130065917969 Z"/></g></g><g transform="translate(0 5.115)"><g class="a" transform="translate(0 -5.115)"><path class="b" d="M 3.689855813980103 21.9330997467041 L 2.972005367279053 21.78678703308105 L 3.233155727386475 21.54873275756836 C 3.26736307144165 21.55223846435547 3.301665306091309 21.55533790588379 3.335969924926758 21.55841064453125 L 3.3611900806427 21.56068992614746 L 3.717309474945068 21.59298706054688 C 3.706372022628784 21.70538902282715 3.697215795516968 21.81879425048828 3.689855813980103 21.9330997467041 Z M 16.5691032409668 16.48193359375 C 16.23907852172852 16.39650535583496 15.90540409088135 16.32511711120605 15.56890869140625 16.26792144775391 C 15.96013355255127 16.11415863037109 16.32833480834961 15.91927814483643 16.6708927154541 15.68496227264404 L 16.5691032409668 16.48193359375 Z M 10.46414470672607 16.4819164276123 L 10.36229610443115 15.68506813049316 C 10.70482540130615 15.91935253143311 11.07299995422363 16.11421203613281 11.46416187286377 16.2679386138916 C 11.12765979766846 16.32513809204102 10.79418277740479 16.39648246765137 10.46414470672607 16.4819164276123 Z"/><path class="c" d="M 21.03240013122559 34.51557159423828 L 18.97067070007324 34.51557159423828 C 18.4573802947998 34.51557159423828 18.01552963256836 34.14952850341797 17.92001914978027 33.64516067504883 L 17.60190963745117 31.96438980102539 C 16.72582054138184 32.08813858032227 15.82688045501709 32.15084075927734 14.92687034606934 32.15084075927734 C 14.27091979980469 32.15084075927734 13.62205028533936 32.1171989440918 12.99532985687256 32.05081939697266 L 12.69357967376709 33.64503860473633 C 12.59813022613525 34.14941024780273 12.15627002716064 34.51551055908203 11.64293003082275 34.51551055908203 L 9.58119010925293 34.51551055908203 C 9.067850112915039 34.51551055908203 8.62600040435791 34.14941024780273 8.530550003051758 33.64503860473633 L 7.936989784240723 30.56207084655762 C 6.498630046844482 29.77914047241211 5.37028980255127 28.73805046081543 4.582210063934326 27.46656036376953 C 3.727499961853027 26.08744049072266 3.294080018997192 24.46644020080566 3.294080018997192 22.64838981628418 C 3.294080018997192 22.40411949157715 3.302340030670166 22.16406059265137 3.317229986190796 21.92745971679688 C 3.317169904708862 21.9276294708252 3.317169904708862 21.92774963378906 3.317169904708862 21.92793083190918 C 3.241349935531616 21.92090034484863 3.162189960479736 21.91292953491211 3.079809904098511 21.90361022949219 C 2.998009920120239 22.08208084106445 2.891599893569946 22.25481986999512 2.760999917984009 22.41852951049805 C 1.933769941329956 23.455810546875 1.072739958763123 23.6536808013916 0.5362499952316284 23.6536808013916 C 0.5021499991416931 23.6536808013916 0.4693999886512756 23.65291976928711 0.4380500018596649 23.65146064758301 C 0.1932999938726425 23.6402702331543 -1.77635683940025e-15 23.44046020507812 -1.77635683940025e-15 23.19548034667969 L -1.77635683940025e-15 23.1933708190918 C -1.77635683940025e-15 22.94499015808105 0.1987500041723251 22.7457103729248 0.4469499886035919 22.73734092712402 C 0.8709400296211243 22.72286033630371 1.523910045623779 22.56916999816895 2.078150033950806 21.87408065795898 C 2.109200000762939 21.83510971069336 2.13755989074707 21.79631996154785 2.163340091705322 21.75770950317383 C 1.22530996799469 21.55620002746582 0.6600599884986877 21.2357006072998 0.4401600062847137 20.78259086608887 C 0.3098999857902527 20.51412010192871 0.2419900000095367 20.07852935791016 0.6585400104522705 19.52809906005859 C 0.9109620451927185 19.1945858001709 1.261189579963684 19.01152992248535 1.637556433677673 19.01152992248535 C 1.689530491828918 19.01152992248535 1.742007970809937 19.01502227783203 1.794790029525757 19.02209091186523 C 2.346800088882446 19.09573936462402 2.867110013961792 19.55018997192383 3.120409965515137 20.17984008789062 C 3.235249996185303 20.46530914306641 3.287990093231201 20.75945091247559 3.280369997024536 21.05094909667969 C 3.322269916534424 21.05529022216797 3.36434006690979 21.05891990661621 3.406349897384644 21.06273078918457 L 3.406349897384644 21.06278991699219 C 3.802150011062622 18.36103057861328 5.239749908447266 16.23383903503418 7.623280048370361 14.85501956939697 C 7.692139625549316 14.81524562835693 7.767306327819824 14.7963399887085 7.841506958007812 14.7963399887085 C 7.992269515991211 14.7963399887085 8.138934135437012 14.8744592666626 8.219829559326172 15.01432991027832 C 8.340530395507812 15.22309970855713 8.269220352172852 15.49016952514648 8.06050968170166 15.61093044281006 C 6.831270217895508 16.32196998596191 5.876540184020996 17.25402069091797 5.222869873046875 18.38129997253418 C 4.522379875183105 19.58926963806152 4.167190074920654 21.02487945556641 4.167190074920654 22.64838981628418 C 4.167190074920654 25.86166954040527 5.639649868011475 28.34627914428711 8.425430297851562 29.83345985412598 C 8.61005973815918 29.93206977844238 8.738380432128906 30.10580062866211 8.777700424194336 30.31011962890625 L 9.388250350952148 33.48133087158203 C 9.406000137329102 33.57519912719727 9.487039566040039 33.64234161376953 9.581199645996094 33.64234161376953 L 11.64293003082275 33.64234161376953 C 11.73709011077881 33.64234161376953 11.81812953948975 33.57526016235352 11.83565044403076 33.48273849487305 L 12.16940021514893 31.71958923339844 C 12.23121070861816 31.39301109313965 12.5211238861084 31.16007423400879 12.84731578826904 31.16007423400879 C 12.87332630157471 31.16007423400879 12.89958477020264 31.16155624389648 12.92595958709717 31.16459083557129 C 13.57184028625488 31.23965072631836 14.24501991271973 31.27766990661621 14.92693996429443 31.27766990661621 C 15.84352016448975 31.27766990661621 16.75864028930664 31.20964050292969 17.6467399597168 31.07534980773926 C 17.68223762512207 31.06997108459473 17.71748924255371 31.06736183166504 17.75228118896484 31.06736183166504 C 18.07872200012207 31.06736183166504 18.3643798828125 31.29719352722168 18.42686080932617 31.62713050842285 L 18.7780704498291 33.48273086547852 C 18.79558944702148 33.57519912719727 18.87663078308105 33.64234161376953 18.97079086303711 33.64234161376953 L 21.03252029418945 33.64234161376953 C 21.12668037414551 33.64234161376953 21.20771980285645 33.57524871826172 21.22524070739746 33.48273086547852 L 21.85934066772461 30.12512969970703 C 21.89871025085449 29.91688919067383 22.02949905395508 29.74117088317871 22.21828079223633 29.64291000366211 C 23.85251998901367 28.79323959350586 25.07542991638184 27.68083000183105 25.8532600402832 26.33658027648926 C 26.02323913574219 26.04278945922852 26.29130935668945 25.82510948181152 26.60807037353516 25.72356986999512 L 28.58790016174316 25.08941078186035 C 28.91032981872559 24.98611068725586 29.12696075439453 24.68932914733887 29.12696075439453 24.35076904296875 L 29.12696075439453 22.31318092346191 C 29.12696075439453 21.9746208190918 28.91032981872559 21.6778507232666 28.58790016174316 21.57455062866211 L 27.35906028747559 21.1809196472168 C 26.93185997009277 21.04397964477539 26.59600067138672 20.70542907714844 26.4607105255127 20.27518081665039 C 26.23031044006348 19.54262924194336 25.88245010375977 18.85462951660156 25.42675971984863 18.23036956787109 C 25.31438064575195 18.07637977600098 25.19514083862305 17.92597007751465 25.06933975219727 17.77914047241211 C 24.79717063903809 18.51449012756348 24.45334053039551 19.00427055358887 24.04294967651367 19.23671913146973 C 23.68013954162598 19.44219970703125 23.18613052368164 19.55879974365234 22.65028953552246 19.55879974365234 C 21.93832015991211 19.55879974365234 21.15233993530273 19.35308074951172 20.50131034851074 18.87682914733887 C 19.94894981384277 18.47270965576172 19.55936050415039 17.92514991760254 19.3435001373291 17.24928092956543 C 19.10331916809082 16.49733924865723 19.08949089050293 15.60367012023926 19.30241966247559 14.59321975708008 C 19.30647087097168 14.57394027709961 19.31144905090332 14.55502033233643 19.31631088256836 14.53602981567383 C 19.16161918640137 14.49765014648438 19.00552940368652 14.46109008789062 18.84873008728027 14.42704963684082 C 18.73101997375488 14.40149974822998 18.61153984069824 14.37701034545898 18.49118995666504 14.35363006591797 C 18.27106094360352 14.68696975708008 18.01752090454102 15.00061988830566 17.73028945922852 15.28785037994385 C 17.40563011169434 15.61252021789551 17.05248069763184 15.89171981811523 16.67882919311523 16.12561988830566 C 16.6787109375 16.12561988830566 16.67859077453613 16.12556076049805 16.67848014831543 16.12556076049805 C 16.9499397277832 16.1960506439209 17.2193603515625 16.27532958984375 17.48578071594238 16.36438941955566 C 17.71446990966797 16.44086074829102 17.83786964416504 16.68824005126953 17.76140975952148 16.91692924499512 C 17.70029067993164 17.09967994689941 17.53001976013184 17.21522903442383 17.34737968444824 17.21522903442383 C 17.30150032043457 17.21522903442383 17.25485992431641 17.20796012878418 17.20891952514648 17.1926097869873 C 16.0184154510498 16.79460906982422 14.76749706268311 16.59560966491699 13.51657962799072 16.59560966491699 C 12.26566219329834 16.59560966491699 11.01474475860596 16.79460906982422 9.824239730834961 17.1926097869873 C 9.77834415435791 17.20794868469238 9.731694221496582 17.21523475646973 9.685816764831543 17.21523475646973 C 9.503159523010254 17.21523475646973 9.332822799682617 17.09971237182617 9.271759986877441 16.91692924499512 C 9.195289611816406 16.68818092346191 9.318690299987793 16.44086074829102 9.547380447387695 16.36438941955566 C 9.813810348510742 16.27532958984375 10.08321952819824 16.19610977172852 10.3546895980835 16.12556076049805 C 10.35457038879395 16.12556076049805 10.35445022583008 16.12561988830566 10.35433006286621 16.12561988830566 C 9.980739593505859 15.89171981811523 9.62753963470459 15.61252021789551 9.30286979675293 15.28785037994385 C 8.177339553833008 14.16232013702393 7.557479858398438 12.6658296585083 7.557479858398438 11.07413959503174 C 7.557479858398438 9.482439994812012 8.177339553833008 7.986010074615479 9.30286979675293 6.860429763793945 C 10.42840003967285 5.734899997711182 11.924880027771 5.115029811859131 13.51657962799072 5.115029811859131 C 15.10828018188477 5.115029811859131 16.60477066040039 5.734899997711182 17.73028945922852 6.860429763793945 C 18.18222999572754 7.312419891357422 18.55587959289551 7.828450202941895 18.8408203125 8.394410133361816 C 18.94927978515625 8.609740257263184 18.86261940002441 8.872300148010254 18.64723014831543 8.98069953918457 C 18.58423614501953 9.012446403503418 18.5172290802002 9.027480125427246 18.45119285583496 9.027480125427246 C 18.29149627685547 9.027480125427246 18.13761138916016 8.939489364624023 18.06088066101074 8.787110328674316 C 17.81777954101562 8.304470062255859 17.4987907409668 7.863959789276123 17.11277008056641 7.477940082550049 C 16.15218925476074 6.517300128936768 14.87495994567871 5.988259792327881 13.51651954650879 5.988259792327881 C 12.15808963775635 5.988259792327881 10.88086032867432 6.517300128936768 9.920269966125488 7.477940082550049 C 8.959690093994141 8.438529968261719 8.430649757385254 9.715640068054199 8.430649757385254 11.07419967651367 C 8.430649757385254 12.43268966674805 8.959690093994141 13.70985984802246 9.920269966125488 14.67043972015381 C 10.45821952819824 15.20839977264404 11.08804988861084 15.59916019439697 11.75942039489746 15.84525012969971 C 12.34152030944824 15.76356983184814 12.92902278900146 15.72272968292236 13.51652526855469 15.72272968292236 C 14.10402774810791 15.72272968292236 14.69153022766113 15.76356983184814 15.27363014221191 15.84525012969971 C 15.94493961334229 15.59916019439697 16.5748291015625 15.20839977264404 17.11277008056641 14.67043972015381 C 18.01313018798828 13.77003955841064 18.54034996032715 12.57419013977051 18.59724998474121 11.3032398223877 C 18.60764503479004 11.06959438323975 18.80040740966797 10.88609886169434 19.03119087219238 10.88609886169434 C 19.03839492797852 10.88609886169434 19.04565620422363 10.88627815246582 19.05293083190918 10.88663959503174 C 19.29387092590332 10.89735984802246 19.48036956787109 11.10138034820557 19.46958923339844 11.34232044219971 C 19.43495941162109 12.11528968811035 19.25068092346191 12.8640604019165 18.93510055541992 13.55346965789795 C 18.96784973144531 13.56038951873779 19.00136947631836 13.566650390625 19.03388977050781 13.57374954223633 C 19.30389022827148 13.63234043121338 19.57225036621094 13.69760990142822 19.83481025695801 13.76815986633301 C 19.91455078125 13.7086296081543 20.00068092346191 13.65664958953857 20.09291076660156 13.61446952819824 C 22.60687255859375 12.46367168426514 23.79785919189453 12.21266746520996 24.38993072509766 12.21266746520996 C 24.71507835388184 12.21266746520996 24.8596076965332 12.28837013244629 24.94342041015625 12.33232021331787 C 25.38240051269531 12.56223964691162 25.60470962524414 13.21467971801758 25.62298965454102 14.32707977294922 C 25.6357593536377 15.10468006134033 25.53721046447754 16.00473976135254 25.35592079162598 16.80002975463867 C 25.63928031921387 17.09059906005859 25.8986701965332 17.39580917358398 26.13192939758301 17.71544075012207 C 26.64374923706055 18.41669082641602 27.03457069396973 19.18972015380859 27.29356002807617 20.01313972473145 C 27.3438892364502 20.17316055297852 27.46792984008789 20.29878044128418 27.62532043457031 20.34922981262207 L 28.85413932800293 20.74286079406738 C 29.53951072692871 20.9624195098877 30 21.59341049194336 30 22.31306076049805 L 30 24.35066032409668 C 30 25.07036018371582 29.53951072692871 25.70136070251465 28.85413932800293 25.92103004455566 L 26.87438011169434 26.55518913269043 C 26.76445007324219 26.59041023254395 26.67017936706543 26.66803932189941 26.60894012451172 26.77386093139648 C 25.75945091247559 28.24198913574219 24.44473075866699 29.45359039306641 22.70051002502441 30.37591934204102 L 22.08311080932617 33.64492034912109 C 21.98760032653809 34.14947891235352 21.54574012756348 34.51557159423828 21.03240013122559 34.51557159423828 Z M 2.401700019836426 20.91736030578613 C 2.391040086746216 20.73723983764648 2.345449924468994 20.59280967712402 2.310349941253662 20.50561904907227 C 2.161350011825562 20.13525009155273 1.880100011825562 19.91435050964355 1.679360032081604 19.88756942749023 C 1.665879964828491 19.8857593536377 1.651170015335083 19.88446998596191 1.635409951210022 19.88446998596191 C 1.560819983482361 19.88446998596191 1.462090015411377 19.91341018676758 1.354920029640198 20.05496978759766 C 1.287310004234314 20.14439010620117 1.180660009384155 20.30816078186035 1.225839972496033 20.40131950378418 C 1.327729940414429 20.61161994934082 1.797299981117249 20.79213905334473 2.401700019836426 20.91736030578613 Z M 24.3704891204834 13.08061981201172 C 23.90232086181641 13.08061981201172 22.64215087890625 13.40785980224609 20.45636940002441 14.40841007232666 C 20.30196952819824 14.47908020019531 20.18993949890137 14.61548042297363 20.15671920776367 14.77315998077393 C 20.15671920776367 14.77315998077393 20.15671920776367 14.77315998077393 20.15671920776367 14.77322006225586 C 19.82596015930176 16.34317970275879 20.12331962585449 17.5184497833252 21.01675987243652 18.17200088500977 C 21.52378845214844 18.54290580749512 22.12629890441895 18.68486785888672 22.64665412902832 18.68486785888672 C 23.04213333129883 18.68486785888672 23.39021682739258 18.60279846191406 23.61252021789551 18.47686958312988 C 24.06545066833496 18.22034072875977 24.51621055603027 16.99105072021484 24.68425941467285 15.55397987365723 C 24.85388946533203 14.10367012023926 24.66942977905273 13.25164985656738 24.52881050109863 13.10177040100098 C 24.49377059936523 13.08806037902832 24.4411506652832 13.08061981201172 24.3704891204834 13.08061981201172 Z"/></g></g><g transform="translate(11.451 8.706)"><g class="a" transform="translate(-202.845 -52.959)"><path class="b" d="M 204.1461639404297 59.89202499389648 C 203.713134765625 59.75408172607422 203.4508361816406 59.52952575683594 203.3702697753906 59.39969635009766 C 203.5419921875 59.54568099975586 203.786376953125 59.74924468994141 204.1461639404297 59.89202499389648 Z M 206.7662811279297 58.28994750976562 C 206.6377105712891 57.43326950073242 205.9066314697266 57.12002563476562 205.6151428222656 56.99512100219727 L 205.3956756591797 56.90107727050781 L 205.3956756591797 56.8848991394043 L 205.1740875244141 56.80612182617188 L 204.9181976318359 56.69646835327148 L 204.9181976318359 56.71469116210938 C 204.1049194335938 56.41965866088867 203.5915985107422 56.16474914550781 203.5289459228516 55.45774078369141 C 203.6591339111328 56.21860122680664 204.3758697509766 56.48902893066406 204.7782897949219 56.640869140625 L 205.4548187255859 56.89614868164062 L 205.4548187255859 56.8862419128418 C 206.2724609375 57.20401382446289 206.7130889892578 57.53864288330078 206.7662811279297 58.28994750976562 Z"/><path class="c" d="M 205.1816253662109 52.95899963378906 C 205.3294982910156 52.95899963378906 205.4774169921875 53.06745147705078 205.4774169921875 53.18574142456055 L 205.4774169921875 53.45203018188477 C 206.1478118896484 53.47177124023438 207.0943298339844 53.67877960205078 207.0943298339844 54.16189956665039 C 207.0943298339844 54.34923934936523 206.956298828125 54.72383880615234 206.6605072021484 54.72383880615234 C 206.4239349365234 54.72383880615234 206.1675567626953 54.40837860107422 205.4774169921875 54.35906982421875 L 205.4774169921875 56.36032867431641 C 206.3351440429688 56.67578125 207.2717590332031 57.10968017578125 207.2717590332031 58.4504508972168 C 207.2717590332031 59.66312026977539 206.5422210693359 60.33351135253906 205.4774169921875 60.48144149780273 L 205.4774169921875 60.81663131713867 C 205.4774169921875 60.93492126464844 205.3295593261719 61.04336929321289 205.1816253662109 61.04336929321289 C 205.0140380859375 61.04336929321289 204.8956756591797 60.93492126464844 204.8956756591797 60.81663131713867 L 204.8956756591797 60.51100921630859 C 203.6731719970703 60.49127197265625 202.8450317382812 59.83071136474609 202.8450317382812 59.34766006469727 C 202.8450317382812 59.11101150512695 203.0520324707031 58.78564834594727 203.2985076904297 58.78564834594727 C 203.6238708496094 58.78564834594727 203.8900146484375 59.47578048706055 204.8956756591797 59.55466079711914 L 204.8956756591797 57.23780059814453 C 204.0083618164062 56.92234039306641 203.0224609375 56.56740951538086 203.0224609375 55.3054313659668 C 203.0224609375 54.06320953369141 203.9590606689453 53.57024002075195 204.8956756591797 53.47163009643555 L 204.8956756591797 53.18574142456055 C 204.8956756591797 53.06745147705078 205.0139617919922 52.95899963378906 205.1816253662109 52.95899963378906 Z M 204.9548187255859 56.17306900024414 L 204.9548187255859 54.37881088256836 C 204.4027099609375 54.44779205322266 204.0083618164062 54.69427108764648 204.0083618164062 55.20697021484375 C 204.0083618164062 55.76890182495117 204.4322814941406 55.97589874267578 204.9548187255859 56.17306900024414 Z M 205.4181976318359 59.53491973876953 C 205.9505615234375 59.43637084960938 206.2857513427734 59.12092208862305 206.2857513427734 58.55883026123047 C 206.2857513427734 57.93775939941406 205.9012603759766 57.66170120239258 205.4181976318359 57.4547004699707 L 205.4181976318359 59.53491973876953 Z"/></g></g></g></svg>