<svg xmlns="http://www.w3.org/2000/svg" width="30" height="31" viewBox="0 0 30 31"><defs><style>.a{fill:#fff;}</style></defs><path class="a" d="M25,5.474V2.583A2.546,2.546,0,0,0,22.5,0H2.5A2.546,2.546,0,0,0,0,2.583V13.95a2.548,2.548,0,0,0,2.242,2.557l1.88,5.042A2.476,2.476,0,0,0,7.353,23.03L19.09,18.358a7.686,7.686,0,0,0,.623,6.632l.287.475v5.019a.508.508,0,0,0,.5.517h9a.508.508,0,0,0,.5-.517V13.429a6.877,6.877,0,0,0-1.916-4.762Zm0,3.09,1.517,4.071a1.566,1.566,0,0,1-.861,2l-.867.346A2.658,2.658,0,0,0,25,13.95ZM1,13.95V2.583a1.526,1.526,0,0,1,1.5-1.55h20A1.526,1.526,0,0,1,24,2.583V5.867h0l0,.012V13.95a1.618,1.618,0,0,1-.034.268l-4.58-4.733a2.606,2.606,0,0,0-3.709-.019,2.823,2.823,0,0,0-.141,3.831l1.953,2.2H2.5A1.526,1.526,0,0,1,1,13.95Zm6.405,2.583L3.85,17.948l-.526-1.415Zm-.412,5.532a1.485,1.485,0,0,1-1.939-.889L4.211,18.91l5.968-2.377v0h8.226l.65.732ZM29,29.967H21V25.833h8ZM29,24.8H20.778l-.217-.358a6.627,6.627,0,0,1-.127-6.617.53.53,0,0,0-.066-.606l-4.1-4.619a1.764,1.764,0,0,1,.078-2.407,1.629,1.629,0,0,1,2.33.024l7.968,8.231.707-.731L25.5,15.806l.513-.207a2.611,2.611,0,0,0,1.434-3.338L25.758,7.721,27.377,9.4A5.819,5.819,0,0,1,29,13.429Zm0,0"/><path class="a" d="M66.323,67.667a1.343,1.343,0,0,0,1.343-1.343v-2.48A1.343,1.343,0,0,0,66.323,62.5h-2.48A1.343,1.343,0,0,0,62.5,63.843v2.48a1.343,1.343,0,0,0,1.343,1.343Zm-2.79-1.343V65.6h1.033V64.567H63.533v-.723a.31.31,0,0,1,.31-.31h2.48a.31.31,0,0,1,.31.31v.723H65.6V65.6h1.033v.723a.31.31,0,0,1-.31.31h-2.48A.31.31,0,0,1,63.533,66.323Zm0,0" transform="translate(-60.433 -60.433)"/><path class="a" d="M78.125,265.625h2.067v1.033H78.125Zm0,0" transform="translate(-75.542 -256.842)"/><path class="a" d="M78.125,359.375h2.067v1.033H78.125Zm0,0" transform="translate(-75.542 -347.492)"/><path class="a" d="M359.375,359.375h2.067v1.033h-2.067Zm0,0" transform="translate(-347.902 -347.492)"/><path class="a" d="M171.875,265.625h2.067v1.033h-2.067Zm0,0" transform="translate(-166.388 -256.842)"/><path class="a" d="M265.625,265.625h2.067v1.033h-2.067Zm0,0" transform="translate(-257.145 -256.842)"/><path class="a" d="M359.375,265.625h2.067v1.033h-2.067Zm0,0" transform="translate(-347.902 -256.842)"/><path class="a" d="M656.25,78.125h1.033v1.55H656.25Zm0,0" transform="translate(-635.274 -75.542)"/><path class="a" d="M593.75,78.125h1.033v1.55H593.75Zm0,0" transform="translate(-574.772 -75.542)"/><path class="a" d="M531.25,78.125h1.033v1.55H531.25Zm0,0" transform="translate(-514.27 -75.542)"/><path class="a" d="M468.75,78.125h1.033v1.55H468.75Zm0,0" transform="translate(-453.767 -75.542)"/><path class="a" d="M687.5,812.5h1.033v1.033H687.5Zm0,0" transform="translate(-665.525 -785.633)"/></svg>